# Made in Blockbench 4.11.2
mtllib mag.mtl

o cuboid
v 0.0625 0.2875000000000001 0.13749999999999996
v 0.0625 0.2875000000000001 0.1044641840525527
v 0.0625 0.0625 0.13749999999999996
v 0.0625 0.0625 0.1044641840525527
v -0.0625 0.2875000000000001 0.13749999999999996
v -0.0625 0.2875000000000001 0.1044641840525527
v -0.0625 0.0625 0.13749999999999996
v -0.0625 0.0625 0.1044641840525527
v 0.0625 -0.11874999999999991 0.12287071726019623
v -0.0625 -0.11874999999999991 0.12287071726019623
v 0.0625 -0.10624999999999996 0.08983490131274896
v -0.0625 -0.09375 0.08983490131274896
v 0.0625 -0.26249999999999996 0.07898286904078503
v -0.0625 -0.26249999999999996 0.07898286904078503
v 0.0625 -0.25625 0.04594705309333775
v -0.0625 -0.25625 0.04594705309333775
v 0.05 0.2875000000000001 0.09936753071094365
v 0.05 0.047314545181644685 0.09953385393479171
v -0.05 0.2875000000000001 0.09936753071094365
v -0.05 0.047314545181644685 0.09953385393479171
v 0.05 -0.11125836399487338 0.08629380251824749
v -0.05 -0.09875836399487342 0.08629380251824749
v 0.05 -0.254645818353036 0.043628862398247786
v -0.05 -0.254645818353036 0.043628862398247786
v 0.05 0.2874424320862464 0.04840101891487558
v 0.05 0.05073798229945636 0.04872330574961016
v -0.05 0.2874424320862464 0.04840101891487558
v -0.05 0.05073798229945636 0.04872330574961016
v 0.05 -0.08499205516132519 0.036911245039341616
v -0.05 -0.08499205516132519 0.036911245039341616
v 0.05 -0.24026764283531654 -0.004481667985268931
v -0.05 -0.24026764283531654 -0.004481667985268931
v 0.0625 0.28732910047830873 0.04840110270590447
v 0.0625 0.02899747676481701 0.04886723542452724
v -0.0625 0.28732910047830873 0.04840110270590447
v -0.0625 0.02899747676481701 0.04886723542452724
v 0.0625 -0.0962077097316012 0.038527439922747805
v -0.0625 -0.0962077097316012 0.038527439922747805
v 0.0625 -0.24433127251452735 -0.0015370537772618487
v -0.0625 -0.24433127251452735 -0.0015370537772618487
v 0.0625 0.2871626095943397 -0.002565249877574713
v 0.0625 0.0320628415356341 -0.0019695286853516764
v -0.0625 0.2871626095943397 -0.002565249877574713
v -0.0625 0.0320628415356341 -0.0019695286853516764
v 0.0625 -0.08241537405802213 -0.010785733914405432
v -0.0625 -0.08241537405802213 -0.010785733914405432
v 0.0625 -0.2292938215929725 -0.04945622581528969
v -0.0625 -0.2292938215929725 -0.04945622581528969
v 0.05 0.2869465798162343 -0.002564945422230916
v 0.05 0.016142988200504638 -0.001856490638219438
v -0.05 0.2869465798162343 -0.002564945422230916
v -0.05 0.016142988200504638 -0.001856490638219438
v 0.05 -0.0873803881768026 -0.009088520888438145
v -0.05 -0.0873803881768026 -0.009088520888438145
v 0.05 -0.22635017293837978 -0.04628757140227591
v -0.05 -0.22635017293837978 -0.04628757140227591
v 0.05 0.286685912523549 -0.05353103556659011
v 0.05 0.01867999799627751 -0.05272980388129943
v -0.05 0.286685912523549 -0.05353103556659011
v -0.05 0.01867999799627751 -0.05272980388129943
v 0.05 -0.07362661602629439 -0.058304502583031464
v -0.05 -0.07362661602629439 -0.058304502583031464
v 0.05 -0.2166773155215942 -0.09393899844966183
v -0.05 -0.2166773155215942 -0.09393899844966183
v 0.0625 0.28638709658014816 -0.05353045305431986
v 0.0625 -0.004161357113771302 -0.052659912496413955
v -0.0625 0.28638709658014816 -0.05353045305431986
v -0.0625 -0.004161357113771302 -0.052659912496413955
v 0.0625 -0.06619230480135363 -0.056486322489648494
v -0.0625 -0.06619230480135363 -0.056486322489648494
v 0.0625 -0.2189247987950158 -0.09669183852039637
v -0.0625 -0.2189247987950158 -0.09669183852039637
v 0.0625 0.2860585036159816 -0.15449628207813276
v 0.0625 0.02248650441759359 -0.15358321095400193
v -0.0625 0.2860585036159816 -0.15449628207813276
v -0.0625 0.02248650441759359 -0.15358321095400193
v 0.0625 -0.0526415006199934 -0.168043757269465
v -0.0625 -0.0526415006199934 -0.168043757269465
v 0.0625 -0.19544750645919196 -0.2064259401886662
v -0.0625 -0.19544750645919196 -0.2064259401886662
vt 0.4339546875 0.5234375
vt 0.429825 0.5234375
vt 0.429825 0.49531250000000004
vt 0.4339546875 0.49531250000000004
vt 0.49595625 0.89375
vt 0.49595625 0.921875
vt 0.4918265625 0.921875
vt 0.4918265625 0.89375
vt 0.1875 0.38730078125
vt 0.203125 0.38730078125
vt 0.203125 0.39143046875
vt 0.1875 0.39143046875
vt 0.6015625 0.6096710937500001
vt 0.6015625 0.60546875
vt 0.6171875 0.60546875
vt 0.6171875 0.6096710937500001
vt 0.0625 0.5578125
vt 0.0625 0.5859375
vt 0.046875 0.5859375
vt 0.046875 0.5578125
vt 0.40625 0.5541578125
vt 0.390625 0.5541578125
vt 0.390625 0.52121171875
vt 0.40625 0.52121171875
vt 0.43165390625 0.47265625
vt 0.4357828125 0.47421875
vt 0.4339546875 0.49531250000000004
vt 0.429825 0.49531250000000004
vt 0.046875 0.53508203125
vt 0.0625 0.53508203125
vt 0.0625 0.5578125
vt 0.046875 0.5578125
vt 0.4899984375 0.87421875
vt 0.49412734375 0.87109375
vt 0.49595625 0.89375
vt 0.4918265625 0.89375
vt 0.390625 0.5116484375
vt 0.40625 0.5116484375
vt 0.40625 0.52121171875
vt 0.390625 0.52121171875
vt 0.43713984375 0.4546875
vt 0.44126875 0.45546875
vt 0.4357828125 0.47421875
vt 0.43165390625 0.47265625
vt 0.046875 0.51629453125
vt 0.0625 0.51629453125
vt 0.0625 0.53508203125
vt 0.046875 0.53508203125
vt 0.4845125 0.85390625
vt 0.48864140625 0.853125
vt 0.49412734375 0.87109375
vt 0.4899984375 0.87421875
vt 0.390625 0.4931640625
vt 0.40625 0.4931640625
vt 0.40625 0.5116484375
vt 0.390625 0.5116484375
vt 0.2015625 0.3920671875
vt 0.1890625 0.3920671875
vt 0.1875 0.39143046875
vt 0.203125 0.39143046875
vt 0.14229767619869332 0.3840337220501935
vt 0.1424046544512369 0.4140569701893011
vt 0.14071716351164829 0.4140625
vt 0.140625 0.3859376510068566
vt 0.1738784541132213 0.41404953838716463
vt 0.1741162006633788 0.38402704140019217
vt 0.17578125 0.3859383304274404
vt 0.1755651230606423 0.4140625
vt 0.1741162006633788 0.38402704140019217
vt 0.17371932566337878 0.3656973539001922
vt 0.1753419819133788 0.3663254789001922
vt 0.17578026316337877 0.3859371976501922
vt 0.14276251994869332 0.3641485658001935
vt 0.14229767619869332 0.3840337220501935
vt 0.14062501994869334 0.3859376283001935
vt 0.14113908244869333 0.3647712220501935
vt 0.615625 0.6100234375
vt 0.603125 0.6100234375
vt 0.6015625 0.6096710937500001
vt 0.6171875 0.6096710937500001
vt 0.17371932566337878 0.3656973539001922
vt 0.17254666558100948 0.3455283906542981
vt 0.17413470514486346 0.34531951363016034
vt 0.17534115014671053 0.366325156925998
vt 0.1439622574533012 0.34548668494224233
vt 0.14276251994869332 0.3641485658001935
vt 0.14113774627371442 0.36477173452923983
vt 0.14237752808894427 0.3452752834734617
vt 0.2015625 0.3984375
vt 0.1890625 0.3984375
vt 0.1890625 0.3920671875
vt 0.2015625 0.3920671875
vt 0.4519984375 0.5250921875
vt 0.4520390625 0.55468046875
vt 0.44566796875 0.5546875
vt 0.44564765625 0.5246640625
vt 0.4600703125 0.96093046875
vt 0.4601109375 0.9313421875
vt 0.46646171875 0.9309140625
vt 0.46644140625 0.9609375
vt 0.4601109375 0.9313421875
vt 0.458634375 0.91437578125
vt 0.46480703125 0.91265546875
vt 0.46646171875 0.9309140625
vt 0.453475 0.50812578125
vt 0.4519984375 0.5250921875
vt 0.44564765625 0.5246640625
vt 0.44730234375 0.50484296875
vt 0.615625 0.6163000000000001
vt 0.603125 0.6163000000000001
vt 0.603125 0.6100234375
vt 0.615625 0.6100234375
vt 0.458634375 0.91437578125
vt 0.45346015625 0.89496640625
vt 0.45947421875 0.89316953125
vt 0.46480703125 0.91265546875
vt 0.45864921875 0.48871640625
vt 0.453475 0.50812578125
vt 0.44730234375 0.50484296875
vt 0.45263515625 0.48691953125
vt 0.6875 0.78125
vt 0.703125 0.78125
vt 0.7015625 0.7890625
vt 0.6890625 0.7890625
vt 0.5966171312783495 0.72550703125
vt 0.5966171312783495 0.7577984375
vt 0.5950546312783495 0.7578125
vt 0.5950546312783495 0.728225
vt 0.32039929133105927 0.40623515624999995
vt 0.3203985100810593 0.37394375
vt 0.32196101008105926 0.37666171875
vt 0.3219617913310593 0.40625
vt 0.3203985100810593 0.37394375
vt 0.3204963079017475 0.35824038839838257
vt 0.3220823620289498 0.3596306266454862
vt 0.32196051801827913 0.3766608628067939
vt 0.5965080041100425 0.7098038128554891
vt 0.5966171312783495 0.72550703125
vt 0.5950547739659381 0.7282247517949395
vt 0.5949250670802989 0.7111948323952032
vt 0.4140625 0.3046875
vt 0.4296875 0.3046875
vt 0.428125 0.3125
vt 0.415625 0.3125
vt 0.3204963079017475 0.35824038839838257
vt 0.32154314501764947 0.33908819095676224
vt 0.3231561774189407 0.33957166946960915
vt 0.3220811733721692 0.35962958474149886
vt 0.5954233167951953 0.6906533040697098
vt 0.5965080041100425 0.7098038128554891
vt 0.5949237724137818 0.7111959700945487
vt 0.5938125562216505 0.6911400967343492
vt 0.28125 0.3046875
vt 0.296875 0.3046875
vt 0.296875 0.3125
vt 0.28125 0.3125
vt 0.48311953125 0.96809140625
vt 0.48319375 0.99997890625
vt 0.4768234375 1
vt 0.47676484375 0.96770859375
vt 0.4826265625 0.65622890625
vt 0.48270078125 0.62434140625
vt 0.48905546875 0.6239585937500001
vt 0.488996875 0.65625
vt 0.48270078125 0.62434140625
vt 0.4815984375 0.61003203125
vt 0.4877625 0.6083078125
vt 0.48905546875 0.6239585937500001
vt 0.484221875 0.95378203125
vt 0.48311953125 0.96809140625
vt 0.47676484375 0.96770859375
vt 0.4780578125 0.9520578125
vt 0.34375 0.3125
vt 0.328125 0.3125
vt 0.328125 0.3046875
vt 0.34375 0.3046875
vt 0.4815984375 0.61003203125
vt 0.47676484375 0.5916718750000001
vt 0.4827546875 0.5897921875000001
vt 0.4877625 0.6083078125
vt 0.48905546875 0.935421875
vt 0.484221875 0.95378203125
vt 0.4780578125 0.9520578125
vt 0.483065625 0.9335421875000001
vt 0.33068593205000907 0.7653802231122224
vt 0.3431859320500091 0.7653802231122224
vt 0.34474843205000905 0.7654075668622224
vt 0.32912343205000905 0.7654075668622224
vt 0.33066901169530377 0.7315294460910526
vt 0.33068593205000907 0.7653802231122224
vt 0.3291234455225037 0.7654075666264537
vt 0.32910750651634957 0.7335200706100199
vt 0.3431859320500091 0.7653802231122224
vt 0.343202071154812 0.7315294457005439
vt 0.34476357633376614 0.7335200702195112
vt 0.3447484185775144 0.7654075666264537
vt 0.343202071154812 0.7315294457005439
vt 0.34324499857238727 0.7185568190722842
vt 0.34482646302803577 0.7191669176688984
vt 0.3447624714311222 0.7335186616770843
vt 0.33061429594455155 0.7185573860857434
vt 0.33066901169530377 0.7315294460910526
vt 0.32910760598215427 0.7335199438098835
vt 0.3290369290389421 0.7191681503854972
vt 0.365625 0.3125
vt 0.353125 0.3125
vt 0.3515625 0.3046875
vt 0.3671875 0.3046875
vt 0.34324499857238727 0.7185568190722842
vt 0.3439702320018106 0.7005886955886904
vt 0.34557649913584654 0.7001953125
vt 0.3448241614850446 0.7191660297778403
vt 0.3298563148405339 0.70059085588529
vt 0.33061429594455155 0.7185573860857434
vt 0.3290338284376406 0.71916935095372
vt 0.32825162586415346 0.7001998488558252
vt 0.6875 0.7109375
vt 0.703125 0.7109375
vt 0.703125 0.71875
vt 0.6875 0.71875
vt 0.108026171875 0.48209218750000005
vt 0.108126171875 0.51559296875
vt 0.101755078125 0.515625
vt 0.10166679687499999 0.48177499999999995
vt 0.489530078125 0.84371796875
vt 0.489630078125 0.8102171874999999
vt 0.495989453125 0.8099000000000001
vt 0.495901171875 0.84375
vt 0.489630078125 0.8102171874999999
vt 0.488933203125 0.7986789062499999
vt 0.495085546875 0.796959375
vt 0.495989453125 0.8099000000000001
vt 0.108723046875 0.47055390625000004
vt 0.108026171875 0.48209218750000005
vt 0.10166679687499999 0.48177499999999995
vt 0.102570703125 0.468834375
vt 0.3203125 0.3125
vt 0.3046875 0.3125
vt 0.3046875 0.3046875
vt 0.3203125 0.3046875
vt 0.488933203125 0.7986789062499999
vt 0.484479296875 0.78079765625
vt 0.490435546875 0.77958828125
vt 0.495085546875 0.796959375
vt 0.11317695312500001 0.45267265624999997
vt 0.108723046875 0.47055390625000004
vt 0.102570703125 0.468834375
vt 0.107220703125 0.45146328125
vt 0.6875 0.7265625
vt 0.703125 0.7265625
vt 0.7015625 0.734375
vt 0.6890625 0.734375
vt 0.6894038027930124 0.28395625
vt 0.6894038027930124 0.320275
vt 0.6878413027930124 0.3203125
vt 0.6878413027930124 0.28681171875
vt 0.12547750684719608 0.36715
vt 0.12547750684719608 0.33083125
vt 0.12704000684719607 0.33368671875
vt 0.12704000684719607 0.3671875
vt 0.12547750684719608 0.33083125
vt 0.12550734606593367 0.3230631674300599
vt 0.12708286065991883 0.3221275078540041
vt 0.1270401866784573 0.3336870473916298
vt 0.689374194186073 0.2761873527838312
vt 0.6894038027930124 0.28395625
vt 0.6878416599517436 0.2868110660424187
vt 0.6877992666053351 0.2752522589496562
vt 0.6875 0.59375
vt 0.703125 0.59375
vt 0.7015625 0.6015625
vt 0.6890625 0.6015625
vt 0.12550734606593367 0.3230631674300599
vt 0.12587477240645975 0.30332457201997065
vt 0.12745218065280392 0.3037128954228009
vt 0.12706938574340237 0.3221355102772907
vt 0.6891089793964096 0.2564468688692275
vt 0.689374194186073 0.2761873527838312
vt 0.6877986350703797 0.2752518839835625
vt 0.6875493222069876 0.2568269403293053
vt 0 0.390625
vt 0.015625 0.390625
vt 0.015625 0.40625
vt 0 0.40625
vt 0.3408953125 0.8732625
vt 0.341009375 0.90620859375
vt 0.3283890625 0.90625
vt 0.32828046875 0.86993125
vt 0.131646875 0.67183359375
vt 0.1317609375 0.6388875
vt 0.14437578125 0.63555625
vt 0.1442671875 0.671875
vt 0.1317609375 0.6388875
vt 0.129953125 0.62949609375
vt 0.14389765625 0.62780234375
vt 0.14437578125 0.63555625
vt 0.342703125 0.86387109375
vt 0.3408953125 0.8732625
vt 0.32828046875 0.86993125
vt 0.32875859375 0.86217734375
vt 0.609375 1
vt 0.59375 1
vt 0.59375 0.984375
vt 0.609375 0.984375
vt 0.129953125 0.62949609375
vt 0.12515546875 0.6116453125
vt 0.138871875 0.6087109374999999
vt 0.14389765625 0.62780234375
vt 0.34750078125 0.8460203125
vt 0.342703125 0.86387109375
vt 0.32875859375 0.86217734375
vt 0.333784375 0.8430859374999999
vn 1 0 0
vn -1 0 0
vn 0 1 0
vn 0 -0.9825703501824005 -0.1858911158243856
vn 0 0 1
vn 0 -0.0034641982007159 -0.999993999647411
vn 1 0 0
vn 0 -0.08045165295174245 0.9967585121469154
vn -1 0 0
vn 0 0.1890093978643168 -0.9819752784663005
vn 1 0 0
vn 0 -0.2920009035835034 0.9564180426499793
vn -1 0 0
vn 0 0.25955988799729035 -0.9657270134685239
vn 0 1 0
vn 0.37755478912542495 -0.0006412259531588921 -0.9259870247674818
vn -0.3675935210706858 -0.0006439953908045521 -0.9299863378226542
vn -0.23884425776217855 0.08765736342534368 -0.9670933807918195
vn 0.2802750724604164 0.07987061387021979 -0.9565911189203581
vn 0 -0.8223116346027628 -0.5690374114211936
vn -0.20809714244935318 0.25820312779961696 -0.9434122768434321
vn 0.15534599133284496 0.2817306123723493 -0.946834454922885
vn 0 0.9999993620880341 -0.0011295235832648176
vn 1 0 0
vn -1 0 0
vn -1 0 0
vn 1 0 0
vn 0 -0.9581271359540008 -0.286343135675685
vn -1 0 0
vn 1 0 0
vn 0 -0.0007393436616058356 -0.9999997266854377
vn 0.000009656315942189942 0.0018043937210389484 0.9999983720337023
vn 0.008375786902306162 0.0018043304274692415 0.9999632946190954
vn 0.19866287018817536 -0.08066216785613924 0.9767428928256118
vn -0.1528036170128118 -0.08133611826238203 0.9849037975832005
vn 0 0.5867693713350379 0.8097541014796311
vn 0.2980821083687696 -0.24922844083753123 0.9214294552205949
vn -0.33795393434992005 -0.24573558273197105 0.9085159116035275
vn 0 0.9999946644359442 -0.00326666491139529
vn 1 0 0
vn -1 0 0
vn -1 0 0
vn 1 0 0
vn 0 -0.9541238215219263 -0.29941231304740223
vn -1 0 0
vn 1 0 0
vn 0 -0.001409319789683572 -0.9999990069083722
vn 0.000020856292834309554 -0.002616111386412223 -0.9999965777572586
vn 0.005711070918558486 -0.0026160687226558024 -0.999980269732059
vn 0.16099943151736287 0.06877993770697906 -0.9845549772461213
vn -0.09731218029003925 0.06935831571045684 -0.9928342075135241
vn 0 0.7326405168739812 -0.6806158042792025
vn 0.18094255748086507 0.2543058364688574 -0.9500464896151971
vn -0.22772085601570513 0.25178029055836165 -0.9406114484854102
vn 0 0.9999869210785725 -0.0051144571361055645
vn 1 0 0
vn -1 0 0
vn -1 0 0
vn 1 0 0
vn 0 -0.9800127424098838 -0.19893472475729046
vn -1 0 0
vn 1 0 0
vn 0 -0.001949397869486732 -0.9999980999221681
vn 0.00002502383325863434 0.002996184075612213 0.9999955111173215
vn 0.00011633333565837537 0.0029961840562759594 0.999995504663724
vn 0.10792680342197669 -0.06120884248235408 0.9922727864378245
vn -0.11727050541780337 -0.06114365171072548 0.9912159615414446
vn 0 -0.7746244089294305 0.6324215564722082
vn -0.16491136563267553 -0.2510833684391203 0.9538141242288412
vn 0.01074052810999357 -0.25455414152711625 0.9669988780176074
vn 0 0.999994704167465 -0.003254479532037833
vn 1 0 0
vn -1 0 0
vn -1 0 0
vn 1 0 0
vn 0 -0.9778702031028669 -0.20921248978863058
vn -1 0 0
vn 1 0 0
usemtl m_9302fecb-b05e-dc4a-3183-5948f359a804
f 2/1/1 1/2/1 3/3/1 4/4/1
f 7/5/2 5/6/2 6/7/2 8/8/2
f 5/9/3 1/10/3 2/11/3 6/12/3
f 15/13/4 13/14/4 14/15/4 16/16/4
f 3/17/5 1/18/5 5/19/5 7/20/5
f 75/21/6 73/22/6 74/23/6 76/24/6
f 9/25/7 11/26/7 4/27/7 3/28/7
f 10/29/8 9/30/8 3/31/8 7/32/8
f 12/33/9 10/34/9 7/35/9 8/36/9
f 77/37/10 78/38/10 76/39/10 74/40/10
f 13/41/11 15/42/11 11/43/11 9/44/11
f 14/45/12 13/46/12 9/47/12 10/48/12
f 16/49/13 14/50/13 10/51/13 12/52/13
f 79/53/14 80/54/14 78/55/14 77/56/14
f 17/57/15 19/58/15 6/59/15 2/60/15
f 18/61/16 17/62/16 2/63/16 4/64/16
f 19/65/17 20/66/17 8/67/17 6/68/17
f 20/69/18 22/70/18 12/71/18 8/72/18
f 21/73/19 18/74/19 4/75/19 11/76/19
f 24/77/20 23/78/20 15/79/20 16/80/20
f 22/81/21 24/82/21 16/83/21 12/84/21
f 23/85/22 21/86/22 11/87/22 15/88/22
f 25/89/23 27/90/23 19/91/23 17/92/23
f 26/93/24 25/94/24 17/95/24 18/96/24
f 27/97/25 28/98/25 20/99/25 19/100/25
f 28/101/26 30/102/26 22/103/26 20/104/26
f 29/105/27 26/106/27 18/107/27 21/108/27
f 32/109/28 31/110/28 23/111/28 24/112/28
f 30/113/29 32/114/29 24/115/29 22/116/29
f 31/117/30 29/118/30 21/119/30 23/120/30
f 33/121/31 35/122/31 27/123/31 25/124/31
f 34/125/32 33/126/32 25/127/32 26/128/32
f 35/129/33 36/130/33 28/131/33 27/132/33
f 36/133/34 38/134/34 30/135/34 28/136/34
f 37/137/35 34/138/35 26/139/35 29/140/35
f 40/141/36 39/142/36 31/143/36 32/144/36
f 38/145/37 40/146/37 32/147/37 30/148/37
f 39/149/38 37/150/38 29/151/38 31/152/38
f 41/153/39 43/154/39 35/155/39 33/156/39
f 42/157/40 41/158/40 33/159/40 34/160/40
f 43/161/41 44/162/41 36/163/41 35/164/41
f 44/165/42 46/166/42 38/167/42 36/168/42
f 45/169/43 42/170/43 34/171/43 37/172/43
f 48/173/44 47/174/44 39/175/44 40/176/44
f 46/177/45 48/178/45 40/179/45 38/180/45
f 47/181/46 45/182/46 37/183/46 39/184/46
f 49/185/47 51/186/47 43/187/47 41/188/47
f 50/189/48 49/190/48 41/191/48 42/192/48
f 51/193/49 52/194/49 44/195/49 43/196/49
f 52/197/50 54/198/50 46/199/50 44/200/50
f 53/201/51 50/202/51 42/203/51 45/204/51
f 56/205/52 55/206/52 47/207/52 48/208/52
f 54/209/53 56/210/53 48/211/53 46/212/53
f 55/213/54 53/214/54 45/215/54 47/216/54
f 57/217/55 59/218/55 51/219/55 49/220/55
f 58/221/56 57/222/56 49/223/56 50/224/56
f 59/225/57 60/226/57 52/227/57 51/228/57
f 60/229/58 62/230/58 54/231/58 52/232/58
f 61/233/59 58/234/59 50/235/59 53/236/59
f 64/237/60 63/238/60 55/239/60 56/240/60
f 62/241/61 64/242/61 56/243/61 54/244/61
f 63/245/62 61/246/62 53/247/62 55/248/62
f 65/249/63 67/250/63 59/251/63 57/252/63
f 66/253/64 65/254/64 57/255/64 58/256/64
f 67/257/65 68/258/65 60/259/65 59/260/65
f 68/261/66 70/262/66 62/263/66 60/264/66
f 69/265/67 66/266/67 58/267/67 61/268/67
f 72/269/68 71/270/68 63/271/68 64/272/68
f 70/273/69 72/274/69 64/275/69 62/276/69
f 71/277/70 69/278/70 61/279/70 63/280/70
f 73/281/71 75/282/71 67/283/71 65/284/71
f 74/285/72 73/286/72 65/287/72 66/288/72
f 75/289/73 76/290/73 68/291/73 67/292/73
f 76/293/74 78/294/74 70/295/74 68/296/74
f 77/297/75 74/298/75 66/299/75 69/300/75
f 80/301/76 79/302/76 71/303/76 72/304/76
f 78/305/77 80/306/77 72/307/77 70/308/77
f 79/309/78 77/310/78 69/311/78 71/312/78