# Made in Blockbench 4.11.2
mtllib rack.mtl

o cuboid
v 0.012499999999999994 0.31250000000000167 0.8187500000000003
v 0.012499999999999994 0.31250000000000167 -0.1812499999999997
v 0.012499999999999994 0.2875000000000017 0.8187500000000003
v 0.012499999999999994 0.2875000000000017 -0.1812499999999997
v -0.012499999999999994 0.31250000000000167 0.8187500000000003
v -0.012499999999999994 0.31250000000000167 -0.1812499999999997
v -0.012499999999999994 0.2875000000000017 0.8187500000000003
v -0.012499999999999994 0.2875000000000017 -0.1812499999999997
v 0.025 0.3187500000000017 0.8187500000000005
v -0.025 0.3187500000000017 0.8187500000000005
v 0.025 0.2812500000000017 0.8187500000000005
v -0.025 0.2812500000000017 0.8187500000000005
v 0.1 0.3187500000000017 0.8437500000000007
v -0.1 0.3187500000000017 0.8437500000000007
v 0.1 0.2812500000000017 0.8437500000000007
v -0.1 0.2812500000000017 0.8437500000000007
v 0.1 0.3187500000000017 0.8812500000000008
v -0.1 0.3187500000000017 0.8812500000000008
v 0.1 0.2812500000000017 0.8812500000000008
v -0.1 0.2812500000000017 0.8812500000000008
vt 0.1328125 0.18749999999999967
vt 0.0078125 0.18749999999999967
vt 0.0078125 0.18437499999999962
vt 0.1328125 0.18437499999999962
vt 0.1328125 0.18437499999999962
vt 0.1328125 0.18749999999999967
vt 0.0078125 0.18749999999999967
vt 0.0078125 0.18437499999999962
vt 0.07031250000000036 0.09375
vt 0.07343750000000035 0.09375
vt 0.07343750000000035 0.21875
vt 0.07031250000000036 0.21875
vt 0.07343750000000035 0.09375
vt 0.07343750000000035 0.21875
vt 0.07031250000000036 0.21875
vt 0.07031250000000036 0.09375
vt 0.08125000000000035 0.18281250000000038
vt 0.08125000000000035 0.18750000000000033
vt 0.06250000000000036 0.18750000000000033
vt 0.06250000000000036 0.18281250000000038
vt 0.07343750000000035 0.18749999999999967
vt 0.07031250000000036 0.18749999999999967
vt 0.07031250000000036 0.18437499999999962
vt 0.07343750000000035 0.18437499999999962
vt 0.07031249999999982 0.20312500000000033
vt 0.07031249999999982 0.19843750000000038
vt 0.07187499999999983 0.19921875000000033
vt 0.07187499999999983 0.20234375000000038
vt 0.045312499999999825 0.21093750000000033
vt 0.03906249999999982 0.21093750000000033
vt 0.04062499999999982 0.21015625000000038
vt 0.043749999999999824 0.21015625000000038
vt 0.009374999999999644 0.19843750000000038
vt 0.009374999999999644 0.20312500000000033
vt 0.007812499999999644 0.20234375000000038
vt 0.007812499999999644 0.19921875000000033
vt 0.03906249999999982 0.18671875000000038
vt 0.045312499999999825 0.18671875000000038
vt 0.043749999999999824 0.18750000000000033
vt 0.04062499999999982 0.18750000000000033
vt 0.07031250000000028 0.20312500000000033
vt 0.07031250000000028 0.19843750000000038
vt 0.07698750000000028 0.19843750000000038
vt 0.07698750000000028 0.20312500000000033
vt 0.031250000000000354 0.21640625000000002
vt 0.05000000000000036 0.21640625000000002
vt 0.04375000000000036 0.21875
vt 0.03750000000000035 0.21875
vt 0.006675000000000146 0.19843750000000038
vt 0.006675000000000146 0.20312500000000033
vt 1.491862189340054e-16 0.20312500000000033
vt 1.491862189340054e-16 0.19843750000000038
vt 0.05000000000000036 0.18750000000000033
vt 0.031250000000000354 0.18750000000000033
vt 0.03750000000000035 0.18515625000000036
vt 0.04375000000000036 0.18515625000000036
vt 0.06250000000000036 0.20312500000000033
vt 0.06250000000000036 0.19843750000000038
vt 0.06562500000000035 0.19843750000000038
vt 0.06562500000000035 0.20312500000000033
vt 0.023437500000000354 0.21562499999999962
vt 0.04218750000000036 0.21562499999999962
vt 0.04218750000000036 0.21874999999999967
vt 0.023437500000000354 0.21874999999999967
vt 0.01093750000000035 0.19843750000000038
vt 0.01093750000000035 0.20312500000000033
vt 0.00781250000000036 0.20312500000000033
vt 0.00781250000000036 0.19843750000000038
vt 0.04218750000000036 0.19531249999999967
vt 0.023437500000000354 0.19531249999999967
vt 0.023437500000000354 0.19218749999999962
vt 0.04218750000000036 0.19218749999999962
vn 1 0 0
vn -1 0 0
vn 0 1 0
vn 0 -1 0
vn 0 0 1
vn 0 0 -1
vn 1.7763568394002492e-14 0 -1
vn 0 3.552713678800482e-14 -1
vn -1.7763568394002492e-14 0 -1
vn 0 -3.552713678800498e-14 -1
vn 0.31622776601683944 0 -0.9486832980505133
vn 0 1 0
vn -0.31622776601683944 0 -0.9486832980505133
vn 0 -1 0
vn 1 0 0
vn 0 1 0
vn -1 0 0
vn 0 -1 0
usemtl m_9302fecb-b05e-dc4a-3183-5948f359a804
f 2/1/1 1/2/1 3/3/1 4/4/1
f 7/5/2 5/6/2 6/7/2 8/8/2
f 5/9/3 1/10/3 2/11/3 6/12/3
f 4/13/4 3/14/4 7/15/4 8/16/4
f 19/17/5 17/18/5 18/19/5 20/20/5
f 6/21/6 2/22/6 4/23/6 8/24/6
f 9/25/7 11/26/7 3/27/7 1/28/7
f 10/29/8 9/30/8 1/31/8 5/32/8
f 12/33/9 10/34/9 5/35/9 7/36/9
f 11/37/10 12/38/10 7/39/10 3/40/10
f 13/41/11 15/42/11 11/43/11 9/44/11
f 14/45/12 13/46/12 9/47/12 10/48/12
f 16/49/13 14/50/13 10/51/13 12/52/13
f 15/53/14 16/54/14 12/55/14 11/56/14
f 17/57/15 19/58/15 15/59/15 13/60/15
f 18/61/16 17/62/16 13/63/16 14/64/16
f 20/65/17 18/66/17 14/67/17 16/68/17
f 19/69/18 20/70/18 16/71/18 15/72/18