# Made in Blockbench 4.11.2
mtllib tracer.mtl

o cylinder
v -2.42861286636753e-17 -1.0408340855860843e-17 0.6875
v -2.42861286636753e-17 7.28583859910259e-17 -0.25
v 0.01674682452694514 0.062499999999999986 0.1875
v 0.01674682452694514 0.06250000000000007 -0.1875
v 0.0457531754730548 0.045753175473054825 0.1875
v 0.0457531754730548 0.04575317547305491 -0.1875
v 0.06249999999999997 0.016746824526945155 0.1875
v 0.06249999999999997 0.016746824526945238 -0.1875
v 0.06249999999999997 -0.016746824526945182 0.1875
v 0.06249999999999997 -0.0167468245269451 -0.1875
v 0.04575317547305481 -0.04575317547305484 0.1875
v 0.04575317547305481 -0.045753175473054755 -0.1875
v 0.01674682452694516 -0.0625 0.1875
v 0.01674682452694516 -0.06249999999999992 -0.1875
v -0.016746824526945165 -0.06250000000000001 0.1875
v -0.016746824526945165 -0.06249999999999993 -0.1875
v -0.04575317547305485 -0.04575317547305485 0.1875
v -0.04575317547305485 -0.04575317547305477 -0.1875
v -0.06250000000000001 -0.01674682452694517 0.1875
v -0.06250000000000001 -0.016746824526945085 -0.1875
v -0.06250000000000003 0.016746824526945127 0.1875
v -0.06250000000000003 0.01674682452694521 -0.1875
v -0.045753175473054866 0.04575317547305481 0.1875
v -0.045753175473054866 0.045753175473054894 -0.1875
v -0.016746824526945186 0.062499999999999986 0.1875
v -0.016746824526945186 0.06250000000000007 -0.1875
vt 0.3001573793804544 0.6227769327775268
vt 0.26674375 0.625
vt 0.2499999999999999 0.12111249999999996
vt 0.26674375 0.625
vt 0.30023125 0.625
vt 0.30023125 1
vt 0.26674375 1
vt 0.8604937500000001 0.91160625
vt 0.8916613713110244 0.9238533736648684
vt 0.84375 1
vt 0.04575625 0.625
vt 0.012342620619545601 0.6227769327775268
vt 0.06250000000000012 0.12111249999999996
vt 0.012268749999999995 0.625
vt 0.04575625 0.625
vt 0.04575625 1
vt 0.012268749999999995 1
vt 0.8916613713110244 0.9238533736648684
vt 0.9161907801986642 0.9466507585121042
vt 0.84375 1
vt 0.07924375 0.625
vt 0.04575625 0.625
vt 0.0625 0.12111249999999996
vt 0.04575625 0.625
vt 0.07924375 0.625
vt 0.07924375 1
vt 0.04575625 1
vt 0.764798790413381 0.5412668583195785
vt 0.797701209586619 0.5350344054478324
vt 0.797701209586619 0.625
vt 0.11265737938045439 0.6227769327775268
vt 0.07924375 0.625
vt 0.062499999999999875 0.12111249999999996
vt 0.07924375 0.625
vt 0.11273125 0.625
vt 0.11273125 1
vt 0.07924375 1
vt 0.7713092198013358 0.7591507585121042
vt 0.7958386286889756 0.7363533736648684
vt 0.84375 0.8125
vt 0.6082562499999999 0.625
vt 0.5748426206195456 0.6227769327775268
vt 0.6250000000000001 0.12111249999999996
vt 0.57476875 0.625
vt 0.6082562499999999 0.625
vt 0.6082562499999999 1
vt 0.57476875 1
vt 0.7958386286889756 0.7363533736648684
vt 0.8270062499999999 0.72410625
vt 0.84375 0.8125
vt 0.6417437500000001 0.625
vt 0.6082562499999999 0.625
vt 0.625 0.12111249999999996
vt 0.6082562499999999 0.625
vt 0.6417437500000001 0.625
vt 0.6417437500000001 1
vt 0.6082562499999999 1
vt 0.8270062499999999 0.72410625
vt 0.8604937500000001 0.72410625
vt 0.84375 0.8125
vt 0.6751573793804544 0.6227769327775268
vt 0.6417437500000001 0.625
vt 0.6249999999999999 0.12111249999999996
vt 0.6417437500000001 0.625
vt 0.67523125 0.625
vt 0.67523125 1
vt 0.6417437500000001 1
vt 0.8604937500000001 0.72410625
vt 0.8916613713110244 0.7363533736648684
vt 0.84375 0.8125
vt 0.42075625 0.625
vt 0.3873426206195456 0.6227769327775268
vt 0.4375000000000001 0.12111249999999996
vt 0.38726875 0.625
vt 0.42075625 0.625
vt 0.42075625 1
vt 0.38726875 1
vt 0.8916613713110244 0.7363533736648684
vt 0.9161907801986642 0.7591507585121042
vt 0.84375 0.8125
vt 0.45424375 0.625
vt 0.42075625 0.625
vt 0.4375 0.12111249999999996
vt 0.42075625 0.625
vt 0.45424375 0.625
vt 0.45424375 1
vt 0.42075625 1
vt 0.764798790413381 0.35376685831957855
vt 0.797701209586619 0.34753440544783243
vt 0.797701209586619 0.4375
vt 0.4876573793804544 0.6227769327775268
vt 0.45424375 0.625
vt 0.4374999999999999 0.12111249999999996
vt 0.45424375 0.625
vt 0.48773125 0.625
vt 0.48773125 1
vt 0.45424375 1
vt 0.7713092198013358 0.9466507585121042
vt 0.7958386286889756 0.9238533736648684
vt 0.84375 1
vt 0.23325625 0.625
vt 0.1998426206195456 0.6227769327775268
vt 0.2500000000000001 0.12111249999999996
vt 0.19976875 0.625
vt 0.23325625 0.625
vt 0.23325625 1
vt 0.19976875 1
vt 0.7958386286889756 0.9238533736648684
vt 0.8270062499999999 0.91160625
vt 0.84375 1
vt 0.26674375 0.625
vt 0.23325625 0.625
vt 0.25 0.12111249999999996
vt 0.23325625 0.625
vt 0.26674375 0.625
vt 0.26674375 1
vt 0.23325625 1
vt 0.8270062499999999 0.91160625
vt 0.8604937500000001 0.91160625
vt 0.84375 1
vn 0.4961389383568337 0.8593378488473196 0.12403473458920847
vn 0.4999999999999999 0.8660254037844387 1.922962686383564e-16
vn 0.3535533905932737 0.6123724356957947 -0.7071067811865476
vn 0.8593378488473196 0.4961389383568339 0.12403473458920847
vn 0.8660254037844386 0.5000000000000001 1.1102230246251568e-16
vn 0.6123724356957945 0.35355339059327395 -0.7071067811865475
vn 0.9922778767136679 -2.7541243638841913e-17 0.12403473458920848
vn 1 0 0
vn 0.7071067811865476 1.5700924586837752e-16 -0.7071067811865476
vn 0.8593378488473196 -0.4961389383568337 0.12403473458920848
vn 0.8660254037844387 -0.4999999999999999 -1.1102230246251563e-16
vn 0.6123724356957946 -0.3535533905932735 -0.7071067811865476
vn 0.4961389383568338 -0.8593378488473195 0.12403473458920844
vn 0.5 -0.8660254037844387 -1.922962686383564e-16
vn 0.3535533905932738 -0.6123724356957945 -0.7071067811865476
vn 4.1114128225516487e-16 -0.9922778767136679 0.12403473458920847
vn 4.143408735633879e-16 -1 -2.220446049250313e-16
vn 2.929832414194295e-16 -0.7071067811865475 -0.7071067811865476
vn -0.4961389383568334 -0.8593378488473199 0.12403473458920847
vn -0.4999999999999995 -0.8660254037844389 -1.9229626863835646e-16
vn -0.35355339059327345 -0.6123724356957947 -0.7071067811865476
vn -0.8593378488473199 -0.4961389383568334 0.12403473458920845
vn -0.8660254037844389 -0.4999999999999995 -1.1102230246251554e-16
vn -0.6123724356957949 -0.35355339059327334 -0.7071067811865476
vn -0.9922778767136679 -4.386825258940071e-16 0.12403473458920845
vn -1 -4.1434087356338823e-16 -9.200215557467489e-32
vn -0.7071067811865476 -1.3597399555105224e-16 -0.7071067811865476
vn -0.8593378488473198 0.4961389383568334 0.12403473458920847
vn -0.8660254037844389 0.4999999999999995 1.1102230246251554e-16
vn -0.6123724356957948 0.3535533905932737 -0.7071067811865475
vn -0.4961389383568337 0.8593378488473196 0.12403473458920845
vn -0.49999999999999994 0.8660254037844388 1.9229626863835643e-16
vn -0.35355339059327373 0.6123724356957947 -0.7071067811865476
vn 0 0.9922778767136679 0.12403473458920848
vn 0 1 2.220446049250313e-16
vn 0 0.7071067811865476 -0.7071067811865475
usemtl m_3dc1a833-8457-e768-3ed5-db66ec52388b
f 5/1/1 3/2/1 1/3/1
f 3/4/2 5/5/2 6/6/2 4/7/2
f 4/8/3 6/9/3 2/10/3
f 7/11/4 5/12/4 1/13/4
f 5/14/5 7/15/5 8/16/5 6/17/5
f 6/18/6 8/19/6 2/20/6
f 9/21/7 7/22/7 1/23/7
f 7/24/8 9/25/8 10/26/8 8/27/8
f 8/28/9 10/29/9 2/30/9
f 11/31/10 9/32/10 1/33/10
f 9/34/11 11/35/11 12/36/11 10/37/11
f 10/38/12 12/39/12 2/40/12
f 13/41/13 11/42/13 1/43/13
f 11/44/14 13/45/14 14/46/14 12/47/14
f 12/48/15 14/49/15 2/50/15
f 15/51/16 13/52/16 1/53/16
f 13/54/17 15/55/17 16/56/17 14/57/17
f 14/58/18 16/59/18 2/60/18
f 17/61/19 15/62/19 1/63/19
f 15/64/20 17/65/20 18/66/20 16/67/20
f 16/68/21 18/69/21 2/70/21
f 19/71/22 17/72/22 1/73/22
f 17/74/23 19/75/23 20/76/23 18/77/23
f 18/78/24 20/79/24 2/80/24
f 21/81/25 19/82/25 1/83/25
f 19/84/26 21/85/26 22/86/26 20/87/26
f 20/88/27 22/89/27 2/90/27
f 23/91/28 21/92/28 1/93/28
f 21/94/29 23/95/29 24/96/29 22/97/29
f 22/98/30 24/99/30 2/100/30
f 25/101/31 23/102/31 1/103/31
f 23/104/32 25/105/32 26/106/32 24/107/32
f 24/108/33 26/109/33 2/110/33
f 3/111/34 25/112/34 1/113/34
f 25/114/35 3/115/35 4/116/35 26/117/35
f 26/118/36 4/119/36 2/120/36